<svg width="23" height="20" viewBox="0 0 23 20" fill="none" xmlns="http://www.w3.org/2000/svg">
<path d="M12.1578 15.1231C12.1578 15.3817 12.055 15.6298 11.8721 15.8128C11.6892 15.9957 11.4411 16.0984 11.1824 16.0984C10.9237 16.0984 10.6756 15.9957 10.4927 15.8128C10.3098 15.6298 10.207 15.3817 10.207 15.1231C10.207 14.8644 10.3098 14.6163 10.4927 14.4334C10.6756 14.2504 10.9237 14.1477 11.1824 14.1477C11.4411 14.1477 11.6892 14.2504 11.8721 14.4334C12.055 14.6163 12.1578 14.8644 12.1578 15.1231ZM11.914 7.07614C11.914 6.88213 11.8369 6.69606 11.6997 6.55887C11.5625 6.42168 11.3764 6.3446 11.1824 6.3446C10.9884 6.3446 10.8023 6.42168 10.6651 6.55887C10.528 6.69606 10.4509 6.88213 10.4509 7.07614V11.4654C10.4509 11.6594 10.528 11.8455 10.6651 11.9826C10.8023 12.1198 10.9884 12.1969 11.1824 12.1969C11.3764 12.1969 11.5625 12.1198 11.6997 11.9826C11.8369 11.8455 11.914 11.6594 11.914 11.4654V7.07614Z" fill="#E6E6E6"/>
<path d="M9.0771 1.21801C10.0164 -0.406003 12.3593 -0.406003 13.2986 1.21801L22.0448 16.3404C22.9841 17.9663 21.8107 20 19.9331 20H2.44254C0.563955 20 -0.608457 17.9663 0.330838 16.3404L9.0771 1.21801ZM12.0325 1.95052C11.9465 1.80275 11.8232 1.68013 11.675 1.5949C11.5268 1.50967 11.3588 1.46481 11.1878 1.46481C11.0169 1.46481 10.8489 1.50967 10.7006 1.5949C10.5524 1.68013 10.4292 1.80275 10.3432 1.95052L1.59786 17.0729C1.51264 17.2213 1.46787 17.3894 1.46804 17.5606C1.46822 17.7317 1.51332 17.8998 1.59884 18.048C1.68435 18.1962 1.80729 18.3194 1.95536 18.4052C2.10342 18.491 2.27142 18.5364 2.44254 18.5369H19.9331C20.1041 18.5363 20.2719 18.4909 20.4199 18.4051C20.5678 18.3194 20.6906 18.1963 20.7761 18.0483C20.8616 17.9002 20.9068 17.7323 20.9071 17.5613C20.9074 17.3903 20.8628 17.2222 20.7778 17.0738L12.0325 1.95052Z" fill="#E6E6E6"/>
</svg>
