<svg width="59" height="55" viewBox="0 0 59 55" fill="none" xmlns="http://www.w3.org/2000/svg">
<path d="M57.7275 40.8935L37.4345 4.61205C35.8971 1.53735 32.8224 0 29.4402 0C26.0581 0 22.9834 1.53735 21.446 4.61205L1.15301 40.8935C-0.384337 43.6607 -0.384337 47.3504 1.15301 50.1176C2.69036 52.8848 5.76506 54.7296 9.14723 54.7296H49.7332C53.1154 54.7296 55.8826 52.8848 57.7275 50.1176C59.5723 47.3504 59.2648 43.9682 57.7275 40.8935ZM52.5005 47.0429C52.193 47.3504 51.5781 48.5802 49.7332 48.5802H9.14723C7.60988 48.5802 6.68747 47.6578 6.38 47.0429C6.07253 46.4279 5.45759 45.5055 6.38 43.9682L26.673 7.37928C27.5954 5.84193 28.8253 5.84193 29.4402 5.84193C30.0552 5.84193 31.2851 5.84193 32.2075 7.37928L52.5005 43.9682C53.1154 45.5055 52.5005 46.7354 52.5005 47.0429Z" fill="#D92D20"/>
<path d="M29.442 17.8334C27.5972 17.8334 26.3673 19.0633 26.3673 20.9081V30.1322C26.3673 31.977 27.5972 33.2069 29.442 33.2069C31.2868 33.2069 32.5167 31.977 32.5167 30.1322V20.9081C32.5167 19.0633 31.2868 17.8334 29.442 17.8334Z" fill="#D92D20"/>
<path d="M29.442 42.431C31.1401 42.431 32.5167 41.0544 32.5167 39.3563C32.5167 37.6582 31.1401 36.2816 29.442 36.2816C27.7439 36.2816 26.3673 37.6582 26.3673 39.3563C26.3673 41.0544 27.7439 42.431 29.442 42.431Z" fill="#D92D20"/>
</svg>
