<svg width="17" height="14" viewBox="0 0 17 14" fill="none" xmlns="http://www.w3.org/2000/svg">
<path d="M12.5874 12.8333V7.58274C12.5874 5.14499 10.6045 3.16223 8.16673 3.16223C5.7289 3.16223 3.74609 5.14499 3.74609 7.58274V12.8333H12.5874ZM8.16673 6.36999C7.49821 6.36999 6.95452 6.91366 6.95452 7.58216C6.95452 7.90416 6.69318 8.16549 6.37117 8.16549C6.04916 8.16549 5.78782 7.90474 5.78782 7.58216C5.78782 6.27024 6.85535 5.20332 8.16673 5.20332C8.48874 5.20332 8.75008 5.46465 8.75008 5.78665C8.75008 6.10866 8.48874 6.36999 8.16673 6.36999Z" fill="#F04438"/>
<path d="M8.16797 5.20337C6.85601 5.20337 5.78906 6.27087 5.78906 7.58221C5.78906 7.90421 6.0504 8.16554 6.37241 8.16554C6.69442 8.16554 6.95576 7.90479 6.95576 7.58221C6.95576 6.91371 7.49945 6.37004 8.16797 6.37004C8.48998 6.37004 8.75132 6.1087 8.75132 5.7867C8.75132 5.4647 8.48998 5.20337 8.16797 5.20337Z" fill="white"/>
<path d="M13.4157 12.8334H12.5862H3.74491H2.91538C2.59337 12.8334 2.33203 13.0941 2.33203 13.4167C2.33203 13.7393 2.59337 14 2.91538 14H13.4157C13.7383 14 13.999 13.7393 13.999 13.4167C13.999 13.0941 13.7383 12.8334 13.4157 12.8334Z" fill="#8B9CA5"/>
<path d="M8.16538 2.65476C8.48739 2.65476 8.74873 2.39342 8.74873 2.07142V0.583335C8.74873 0.261334 8.48739 0 8.16538 0C7.84337 0 7.58203 0.261334 7.58203 0.583335V2.07142C7.58203 2.39342 7.84337 2.65476 8.16538 2.65476Z" fill="#FBC34E"/>
<path d="M15.7484 7.71802H14.2865C13.9639 7.71802 13.7031 7.97877 13.7031 8.30135C13.7031 8.62394 13.9639 8.88469 14.2865 8.88469H15.7484C16.0709 8.88469 16.3317 8.62394 16.3317 8.30135C16.3317 7.97877 16.0709 7.71802 15.7484 7.71802Z" fill="#FBC34E"/>
<path d="M2.62858 8.30135C2.62858 7.97877 2.36724 7.71802 2.04523 7.71802H0.583351C0.261341 7.71802 0 7.97877 0 8.30135C0 8.62394 0.261341 8.88469 0.583351 8.88469H2.04523C2.36724 8.88469 2.62858 8.62394 2.62858 8.30135Z" fill="#FBC34E"/>
<path d="M3.42344 4.30509C3.53777 4.42117 3.68886 4.4795 3.83937 4.4795C3.98695 4.4795 4.13454 4.42409 4.24829 4.31209C4.47813 4.08634 4.48163 3.71708 4.25588 3.48725L3.22218 2.4355C2.99584 2.20508 2.62658 2.20216 2.39732 2.42791C2.16748 2.65366 2.16398 3.02292 2.38974 3.25275L3.42344 4.30509Z" fill="#FBC34E"/>
<path d="M12.4937 4.4795C12.6448 4.4795 12.7959 4.42117 12.9096 4.30509L13.9433 3.25275C14.1696 3.02292 14.1661 2.65366 13.9363 2.42791C13.7053 2.20216 13.3366 2.20508 13.1114 2.4355L12.0777 3.48783C11.8514 3.71767 11.8549 4.08692 12.0847 4.31267C12.1985 4.42409 12.3461 4.4795 12.4937 4.4795Z" fill="#FBC34E"/>
</svg>
