<svg width="12" height="12" viewBox="0 0 12 12" fill="none" xmlns="http://www.w3.org/2000/svg">
<path d="M7.47692 5.29535C7.37451 5.39776 7.23561 5.4553 7.09078 5.4553C6.94595 5.4553 6.80706 5.39776 6.70465 5.29535C6.60224 5.19294 6.5447 5.05405 6.5447 4.90922C6.5447 4.76439 6.60224 4.62549 6.70465 4.52308L11.0678 0.159944C11.1185 0.109235 11.1787 0.0690111 11.2449 0.041568C11.3112 0.0141248 11.3822 0 11.4539 0C11.5256 0 11.5966 0.0141248 11.6629 0.041568C11.7291 0.0690111 11.7893 0.109235 11.8401 0.159944C11.8908 0.210652 11.931 0.270851 11.9584 0.337105C11.9859 0.403358 12 0.474369 12 0.546081C12 0.617793 11.9859 0.688804 11.9584 0.755057C11.931 0.821311 11.8908 0.88151 11.8401 0.932219L7.47692 5.29535ZM0.932219 11.8401C0.88151 11.8908 0.821311 11.931 0.755057 11.9584C0.688804 11.9859 0.617793 12 0.546081 12C0.474369 12 0.403358 11.9859 0.337105 11.9584C0.270851 11.931 0.210652 11.8908 0.159944 11.8401C0.109235 11.7893 0.0690111 11.7291 0.041568 11.6629C0.0141248 11.5966 0 11.5256 0 11.4539C0 11.3822 0.0141248 11.3112 0.041568 11.2449C0.0690111 11.1787 0.109235 11.1185 0.159944 11.0678L4.52308 6.70465C4.62549 6.60224 4.76439 6.5447 4.90922 6.5447C5.05405 6.5447 5.19294 6.60224 5.29535 6.70465C5.39776 6.80706 5.4553 6.94595 5.4553 7.09078C5.4553 7.23561 5.39776 7.37451 5.29535 7.47692L0.932219 11.8401Z" fill="#E6E6E6"/>
<path d="M0.545392 11.9992C0.400745 11.9992 0.262023 11.9418 0.159742 11.8395C0.0574609 11.7372 0 11.5985 0 11.4538C0 11.3092 0.0574609 11.1705 0.159742 11.0682C0.262023 10.9659 0.400745 10.9084 0.545392 10.9084H4.90853C5.05317 10.9084 5.1919 10.9659 5.29418 11.0682C5.39646 11.1705 5.45392 11.3092 5.45392 11.4538C5.45392 11.5985 5.39646 11.7372 5.29418 11.8395C5.1919 11.9418 5.05317 11.9992 4.90853 11.9992H0.545392Z" fill="#E6E6E6"/>
<path d="M1.09078 11.4538C1.09078 11.5985 1.03332 11.7372 0.931042 11.8395C0.828761 11.9418 0.690039 11.9992 0.545392 11.9992C0.400745 11.9992 0.262023 11.9418 0.159742 11.8395C0.0574609 11.7372 0 11.5985 0 11.4538V7.09071C0 6.94606 0.0574609 6.80734 0.159742 6.70506C0.262023 6.60277 0.400745 6.54531 0.545392 6.54531C0.690039 6.54531 0.828761 6.60277 0.931042 6.70506C1.03332 6.80734 1.09078 6.94606 1.09078 7.09071V11.4538ZM11.9986 4.90914C11.9986 5.05379 11.9412 5.19251 11.8389 5.29479C11.7366 5.39707 11.5979 5.45453 11.4532 5.45453C11.3086 5.45453 11.1699 5.39707 11.0676 5.29479C10.9653 5.19251 10.9078 5.05379 10.9078 4.90914V0.546002C10.9078 0.401355 10.9653 0.262633 11.0676 0.160352C11.1699 0.0580712 11.3086 0.000610352 11.4532 0.000610352C11.5979 0.000610352 11.7366 0.0580712 11.8389 0.160352C11.9412 0.262633 11.9986 0.401355 11.9986 0.546002V4.90914Z" fill="#E6E6E6"/>
<path d="M7.08836 1.09139C6.94371 1.09139 6.80499 1.03393 6.70271 0.931652C6.60043 0.829372 6.54297 0.690649 6.54297 0.546002C6.54297 0.401355 6.60043 0.262633 6.70271 0.160352C6.80499 0.0580712 6.94371 0.000610352 7.08836 0.000610352H11.4515C11.5961 0.000610352 11.7349 0.0580712 11.8371 0.160352C11.9394 0.262633 11.9969 0.401355 11.9969 0.546002C11.9969 0.690649 11.9394 0.829372 11.8371 0.931652C11.7349 1.03393 11.5961 1.09139 11.4515 1.09139H7.08836Z" fill="#E6E6E6"/>
</svg>
